<?xml version="1.0" standalone="no"?>
<!DOCTYPE svg PUBLIC "-//W3C//DTD SVG 20010904//EN"
 "http://www.w3.org/TR/2001/REC-SVG-20010904/DTD/svg10.dtd">
<svg version="1.0" xmlns="http://www.w3.org/2000/svg"
 width="260.000000pt" height="260.000000pt" viewBox="0 0 260.000000 260.000000"
 preserveAspectRatio="xMidYMid meet">
<metadata>
Created by potrace 1.14, written by Peter Selinger 2001-2017
</metadata>
<g transform="translate(0.000000,260.000000) scale(0.100000,-0.100000)"
fill="#000000" stroke="none">
<path d="M405 2580 c-3 -11 -15 -20 -25 -20 -53 0 -198 -93 -245 -158 -42 -58
-95 -155 -95 -174 0 -8 -9 -23 -20 -33 -20 -18 -20 -31 -20 -896 0 -795 2
-879 16 -887 9 -5 24 -32 33 -60 22 -63 83 -153 137 -201 55 -48 163 -111 191
-111 12 0 27 -9 33 -20 11 -20 21 -20 884 -20 858 0 874 0 899 20 14 11 32 20
41 20 45 0 167 80 229 151 43 50 107 164 107 193 0 7 7 19 15 26 13 11 15 121
15 883 0 973 8 860 -68 1016 -50 104 -187 225 -286 253 -23 6 -48 17 -57 25
-13 11 -179 13 -897 13 -872 0 -881 0 -887 -20z m1248 -599 c26 -48 47 -93 47
-99 0 -6 -60 -43 -132 -83 -73 -39 -164 -89 -201 -110 -38 -22 -72 -39 -76
-39 -4 0 -17 21 -30 48 -13 26 -36 67 -53 91 -16 24 -28 45 -26 46 2 1 30 17
63 34 33 17 125 69 205 115 80 46 147 85 150 85 3 1 27 -39 53 -88z m-553
-348 c-3 -237 10 -726 20 -758 28 -92 90 -135 195 -135 83 0 132 29 165 95
l25 50 5 385 5 385 113 3 112 3 1 -98 c2 -296 -4 -674 -12 -718 -13 -72 -63
-167 -109 -209 -157 -142 -407 -154 -584 -28 -89 62 -139 161 -156 310 -11 96
-14 725 -3 735 3 4 55 7 115 7 l108 0 0 -27z"/>
</g>
</svg>
